<svg version="1" xmlns="http://www.w3.org/2000/svg" width="933.333" height="933.333" viewBox="0 0 700.000000 700.000000"><path d="M330 22.3c-.3.3-4.1.7-8.5 1-41.3 2.8-88.4 16.9-127.9 38.3-11.6 6.3-36.4 22.3-43.5 28.1-19.4 15.8-30.5 26.2-43.7 40.8-42.9 47.4-72.7 110.2-80.9 171-.3 2.2-.7 5.3-1 7-2.7 18.1-2.8 61.4-.1 82.5 1.3 10 2 13.8 4.1 24 8.9 43.4 25.2 82.3 49.7 118.8 2.8 4.2 5.4 7.9 5.8 8.2.4.3 1.1 1.2 1.6 2.1 4.6 8.2 33.3 39.8 46.5 51.3 23.1 20 47.5 36.5 71.6 48.1 6.5 3.1 12.6 6.1 13.5 6.6 12 6.2 52 18.9 67.8 21.5 1.4.3 4.8.9 7.5 1.4 17.3 3.3 30.2 4.3 54.5 4.4 26.1.1 34-.4 51.5-3 14.2-2.1 14.7-2.2 28-5.4 79.9-19 149.3-67.3 195.7-136 4.6-6.9 8.8-13.2 9.1-14 .4-.8 2.3-4.2 4.2-7.5 17.5-30 31.3-68.3 37.6-104.5 1.6-9.5 1.6-9.5 3.1-21.5 1.9-16.5 1.5-70.1-.6-76.6-.3-.8-.7-3.7-1-6.4-.3-2.8-1-7.5-1.6-10.5-.6-3-1.3-6.7-1.5-8.3-1.2-6.3-7.7-29.9-10.8-39.2-6.8-19.9-17.5-43.5-25.9-57.4-2.1-3.4-3.8-6.5-3.8-6.6 0-.6-12.1-18.7-15.7-23.5-6.5-8.7-7.9-10.5-13.3-17-49.4-59-116.9-98.5-191.5-112.4-7.1-1.3-15.9-2.7-19.5-3.1-3.6-.4-7.8-.9-9.5-1.1-4-.7-50.9-1.6-51.5-1.1zm39 44.1c5.8.4 11.6.8 13 1.1 2.1.3 9.6 1.4 21.1 3.1 11.2 1.5 44.2 11.4 55.9 16.6 29 13 49 25 70.4 42.3 9.4 7.5 27.1 24.6 34.1 32.8 2.2 2.6 5.1 6 6.4 7.4 5.1 5.8 20.6 27.8 24.9 35.4 11.6 20.8 18.5 36 24.7 54.5 4.4 12.9 8.7 29.6 10 38.4.4 2.4.8 4.7 1 5 .1.3.6 3 .9 6.1.4 3.1.8 6.5 1 7.6 2.2 11.1 2.2 54.7.1 66.3-.3 1.4-.7 4.5-1 7-4.5 38.1-21.9 83.4-45.9 119-15.4 22.9-38.7 48.2-58.2 63.2-1.6 1.2-3.1 2.5-3.4 2.8-1 1.2-14.8 10.8-23 16-11.5 7.3-34.3 18.8-46.5 23.4-5.5 2-11 4.1-12.2 4.6-6.1 2.5-29 8.4-40.3 10.5-1.4.3-3.6.7-5 .9-4.9 1-17.7 2.5-25.8 3.2-12.6 1-41.1.4-52.7-1.1-2.2-.2-6.2-.7-9-1-6.7-.8-27.8-5.1-33.5-6.9-2.5-.8-7.9-2.4-12-3.6-48.8-14.5-99-48.5-133.2-90.1-8.9-10.9-23.8-32-23.8-33.7 0-.6-.3-1.2-.7-1.4-3.5-1.5-21.6-41.1-27.2-59.3-1.2-3.9-2.6-8.4-3.1-10-3.5-11.1-8.4-39.4-9.5-55-.7-9.6-.7-36.4 0-43 2.5-24.5 2.8-26.1 5.6-38.5 5.8-25.9 11.7-42.5 23-65.5C131.5 150.2 198.7 95.4 279 74.7c5.2-1.4 11.1-2.8 13-3.1 1.9-.3 4.6-.8 6-1.1 8.6-1.8 23.5-3.6 34.2-4.1 6.7-.4 12.4-.7 12.5-.8.3-.3 11.7.1 24.3.8z"/><path d="M343.6 154.3c-5.9 1.5-13 9-14.4 15.3-.8 3.5-1.1 30.9-.9 95.4l.2 90.5 2.2 4.1c3.3 6.1 92.1 94.6 97.6 97.3 14.2 6.9 30.6-3.5 30.8-19.4.1-8.8-1.6-10.9-45.5-54.7-30.8-30.9-41.6-42.3-41.6-44-.3-158.6-.5-170.2-2.4-173.3-6.5-10.1-15.5-13.9-26-11.2z"/></svg>